<svg xmlns="http://www.w3.org/2000/svg" width="100%" height="100%" viewBox="0 0 256 256">
  <path fill="none" fill-opacity="0" stroke="#000" stroke-width="12" stroke-linejoin="round" d="M187.375,35.806A109.515,109.515,0,0,0,35.806,187.375m30.97,31.255A109.511,109.511,0,0,0,218.63,66.776"/>
  <path fill="none" fill-opacity="0" stroke="#000" stroke-width="12" stroke-linejoin="round" d="M250.944,76.621l-31.95-11.629-11.629,31.95"/>
  <path fill="none" fill-opacity="0" stroke="#000" stroke-width="12" stroke-linejoin="round" d="M4.045,177.354l31.95,11.628,11.629-31.949"/>
  <rect fill="none" fill-opacity="0" stroke="#000" stroke-width="12" stroke-linejoin="round" x="84" y="50" width="89" height="157" rx="5" ry="5"/>
  <rect fill="none" fill-opacity="0" stroke="#000" stroke-width="12" stroke-linejoin="round" x="84" y="69" width="89" height="120"/>
  <path fill="none" fill-opacity="0" stroke="#000" stroke-width="12" stroke-linejoin="round" d="M128,169.8c-16.348,0-29.6-3.282-29.6-17.2s13.252-25.2,29.6-25.2,29.6,11.282,29.6,25.2S144.348,169.8,128,169.8Zm0-44.8a18.4,18.4,0,1,1,18.4-18.4A18.4,18.4,0,0,1,128,125Z"/>
</svg>
