<svg xmlns="http://www.w3.org/2000/svg" width="100%" height="100%" viewBox="0 0 256 256">
  <path fill="none" fill-opacity="0" stroke="#000" stroke-width="12" stroke-linejoin="round" d="M67.625,35.806A109.515,109.515,0,0,1,219.2,187.375M188.224,218.63A109.51,109.51,0,0,1,36.37,66.776"/>
  <path fill="none" fill-opacity="0" stroke="#000" stroke-width="12" stroke-linejoin="round" d="M4.056,76.621l31.95-11.629,11.629,31.95"/>
  <path fill="none" fill-opacity="0" stroke="#000" stroke-width="12" stroke-linejoin="round" d="M250.955,177.354l-31.949,11.628-11.629-31.949"/>
  <path fill="none" fill-opacity="0" stroke="#000" stroke-width="12" stroke-linejoin="round" d="M88.6,49.9h78.8a5,5,0,0,1,5,5V202.1a5,5,0,0,1-5,5H88.6a5,5,0,0,1-5-5V54.9A5,5,0,0,1,88.6,49.9Z"/>
  <circle fill="none" fill-opacity="0" stroke="#000" stroke-width="12" stroke-linejoin="round" cx="128" cy="87" r="16"/>
</svg>
